<svg width="64" height="64" viewBox="0 0 64 64" fill="none" xmlns="http://www.w3.org/2000/svg">
<g id="iconspace_Soccer Ball">
<path id="Shape" d="M32 53C43.598 53 53 43.598 53 32C53 20.402 43.598 11 32 11C20.402 11 11 20.402 11 32C11 43.598 20.402 53 32 53Z" fill="#154E84"/>
<path id="Shape_2" d="M32 51C21.5066 51 13 42.4934 13 32C13 21.5066 21.5066 13 32 13C42.4934 13 51 21.5066 51 32C51 42.4934 42.4934 51 32 51Z" fill="white"/>
<path id="Shape_3" d="M48.7055 42C49.502 42 49.9789 42.8859 49.5402 43.5507C47.099 47.2507 43.5399 50.103 39.3853 51.6641C38.6812 51.9287 37.948 51.3504 38.0413 50.604L39.0073 42.876C39.0698 42.3755 39.4952 42 39.9995 42L48.7055 42Z" fill="#154E84"/>
<path id="Shape_4" d="M40.8827 44L40.2422 49.1242C42.7537 47.9129 44.9708 46.1592 46.7317 44L40.8827 44Z" fill="#FFC200"/>
<path id="Shape_5" d="M26.0006 50.7408C26.0006 51.4385 25.3041 51.9217 24.6506 51.6775C20.4808 50.1194 16.9082 47.2615 14.4599 43.5507C14.0213 42.8859 14.4981 42 15.2946 42L23.0368 42C23.4851 42 23.8786 42.2983 23.9997 42.7299L25.9634 49.7299C25.9881 49.8178 26.0006 49.9087 26.0006 50V50.7408Z" fill="#154E84"/>
<path id="Shape_6" d="M22.2775 44L17.2676 44C19.0172 46.1453 21.2171 47.8903 23.7085 49.1007L22.2775 44Z" fill="#52ABE2"/>
<path id="Shape_7" d="M11 32C11 28.2625 11.9786 24.6653 13.81 21.4993C13.9888 21.1903 14.3187 21 14.6756 21H15C15.3344 21 15.6466 21.1671 15.8321 21.4453L19.8321 27.4453C20.1314 27.8944 20.0204 28.5001 19.5812 28.8138L12.6049 33.7964C11.9609 34.2564 11.0631 33.8215 11.0249 33.031C11.0083 32.6884 11 32.3447 11 32Z" fill="#154E84"/>
<path id="Shape_8" d="M17.6304 27.7489L14.915 23.6758C13.7999 25.9594 13.1522 28.4531 13.0234 31.0394L17.6304 27.7489Z" fill="#FFC200"/>
<path id="Shape_9" d="M53.0001 31.9999C53.0001 32.3446 52.9918 32.6883 52.9752 33.0309C52.937 33.8213 52.0392 34.2563 51.3952 33.7963L44.4189 28.8136C43.9791 28.4995 43.8684 27.8928 44.1691 27.4436L48.1691 21.4681C48.3547 21.1909 48.6664 21.0244 49.0001 21.0244L49.3386 21.0244C49.6961 21.0244 50.0264 21.2152 50.2049 21.5249C52.0269 24.6848 53.0001 28.2726 53.0001 31.9999Z" fill="#154E84"/>
<path id="Shape_10" d="M49.0907 23.6875L46.3711 27.7502L50.9766 31.0395C50.848 28.4577 50.2023 25.968 49.0907 23.6875Z" fill="#52ABE2"/>
<path id="Shape_11" d="M25.3433 13.6694C24.7543 13.156 24.9553 12.1957 25.7008 11.9616C27.7223 11.3266 29.84 11 32.0004 11C34.1653 11 36.2872 11.328 38.3125 11.9655C39.0581 12.2002 39.2583 13.1611 38.6684 13.674L32.6565 18.9006C32.2799 19.228 31.7195 19.2276 31.3433 18.8997L25.3433 13.6694Z" fill="#154E84"/>
<path id="Shape_12" d="M32.0007 16.8201L35.9274 13.4062C34.647 13.1372 33.3329 13 31.9998 13C30.6701 13 29.3593 13.1365 28.082 13.4041L32.0007 16.8201Z" fill="#52ABE2"/>
<path id="Shape_13" fill-rule="evenodd" clip-rule="evenodd" d="M32.6001 23.2C32.2445 22.9333 31.7556 22.9333 31.4001 23.2L23.4001 29.2C23.0557 29.4583 22.9153 29.9079 23.0514 30.3162L26.0514 39.3162C26.1875 39.7246 26.5696 40 27.0001 40H37.0001C37.4305 40 37.8126 39.7246 37.9487 39.3162L40.9487 30.3162C41.0849 29.9079 40.9444 29.4583 40.6001 29.2L32.6001 23.2ZM27.7208 38L25.1767 30.3675L32.0001 25.25L38.8235 30.3675L36.2793 38H27.7208Z" fill="#154E84"/>
<path id="Shape_14" d="M24.3717 29.0713L19.3717 27.0713L18.6289 28.9282L23.6289 30.9282L24.3717 29.0713Z" fill="#154E84"/>
<path id="Shape_15" d="M26.293 38.293L22.293 42.293L23.7072 43.7072L27.7072 39.7072L26.293 38.293Z" fill="#154E84"/>
<path id="Path" d="M37.7992 38.3999L40.7992 42.3999L39.1992 43.5999L36.1992 39.5999L37.7992 38.3999Z" fill="#154E84"/>
<path id="Path_2" d="M45.3717 28.9282L40.3717 30.9282L39.6289 29.0713L44.6289 27.0713L45.3717 28.9282Z" fill="#154E84"/>
<path id="Shape_16" d="M33.0059 24.1299V17.9907H31.0059V24.1299H33.0059Z" fill="#154E84"/>
</g>
</svg>
