<svg width="56" height="56" viewBox="0 0 56 56" fill="none" xmlns="http://www.w3.org/2000/svg">
<g id="iconspace_Women Wallet">
<circle id="Shape" cx="28" cy="28" r="28" fill="#E6F0FC"/>
<path id="Shape_2" fill-rule="evenodd" clip-rule="evenodd" d="M16.2524 21.875H39.7463L43.1994 32.6781C44.965 38.2018 41.9185 44.1109 36.3948 45.8765C35.3613 46.2068 34.2829 46.375 33.1979 46.375H22.8008C17.0018 46.375 12.3008 41.674 12.3008 35.875C12.3008 34.79 12.4689 33.7116 12.7993 32.6781L16.2524 21.875Z" fill="#FFC200"/>
<path id="Shape_3" fill-rule="evenodd" clip-rule="evenodd" d="M18.8774 21.875H39.7463L43.1994 32.6781C44.965 38.2018 41.9185 44.1109 36.3948 45.8765C35.3613 46.2068 34.2829 46.375 33.1979 46.375H25.4258C19.6268 46.375 14.9258 41.674 14.9258 35.875C14.9258 34.79 15.0939 33.7116 15.4243 32.6781L18.8774 21.875Z" fill="white"/>
<path id="Shape_4" d="M16.625 15.75H39.375C41.308 15.75 42.875 17.317 42.875 19.25C42.875 21.183 41.308 22.75 39.375 22.75H16.625C14.692 22.75 13.125 21.183 13.125 19.25C13.125 17.317 14.692 15.75 16.625 15.75Z" fill="#154E84"/>
<path id="Shape_5" d="M16.625 17.5C15.6585 17.5 14.875 18.2835 14.875 19.25C14.875 20.2165 15.6585 21 16.625 21H39.375C40.3415 21 41.125 20.2165 41.125 19.25C41.125 18.2835 40.3415 17.5 39.375 17.5H16.625Z" fill="#52ABE2"/>
<path id="Shape_6" d="M35.875 16.1885C35.875 13.7722 33.9162 11.8135 31.5 11.8135C29.0838 11.8135 27.125 13.7722 27.125 16.1885L27.1256 16.6262C27.1263 17.1089 27.5179 17.4999 28.0006 17.4999H35C35.4832 17.4999 35.875 17.1082 35.875 16.6249V16.1885Z" fill="#154E84"/>
<path id="Shape_7" d="M28.9121 15.7499C29.1205 14.5094 30.2002 13.5635 31.5008 13.5635C32.8011 13.5635 33.8806 14.5089 34.0893 15.7499H28.9121Z" fill="#FFC200"/>
<path id="Shape_8" d="M24.5 11.8135C22.0838 11.8135 20.125 13.7722 20.125 16.1885V16.6249C20.125 17.1082 20.5168 17.4999 21 17.4999H28.0006C28.4844 17.4999 28.8763 17.1074 28.8756 16.6236L28.875 16.1878C28.8746 13.7719 26.916 11.8135 24.5 11.8135Z" fill="#154E84"/>
<path id="Shape_9" d="M27.0892 15.7499H21.9121C22.1208 14.5089 23.2003 13.5635 24.5006 13.5635C25.8009 13.5635 26.8804 14.5089 27.0892 15.7499Z" fill="#FFC200"/>
<path id="Shape_10" fill-rule="evenodd" clip-rule="evenodd" d="M16.2524 21C15.8718 21 15.5349 21.246 15.419 21.6086L11.9658 32.4117C11.608 33.5313 11.4258 34.6996 11.4258 35.875C11.4258 42.1572 16.5185 47.25 22.8008 47.25H33.1979C34.3733 47.25 35.5416 47.0678 36.6612 46.7099C42.6452 44.7972 45.9456 38.3957 44.0329 32.4117L40.5797 21.6086C40.4638 21.246 40.1269 21 39.7463 21H16.2524ZM13.6328 32.9445L16.8914 22.75H39.1073L42.3659 32.9445C43.9844 38.0079 41.1918 43.4246 36.1284 45.043C35.1811 45.3458 34.1925 45.5 33.1979 45.5H22.8008C17.485 45.5 13.1758 41.1907 13.1758 35.875C13.1758 34.8804 13.3299 33.8919 13.6328 32.9445Z" fill="#154E84"/>
</g>
</svg>
