<svg width="31" height="35" viewBox="0 0 31 35" fill="none" xmlns="http://www.w3.org/2000/svg">
<g id="iconspace_Processor 1">
<path id="Shape" d="M6.81854 7.09082H24.2731C25.4781 7.09082 26.4549 8.06765 26.4549 9.27264V26.7272C26.4549 27.9322 25.4781 28.909 24.2731 28.909H6.81854C5.61355 28.909 4.63672 27.9322 4.63672 26.7272V9.27264C4.63672 8.06765 5.61355 7.09082 6.81854 7.09082Z" fill="#154E84"/>
<path id="Shape_2" d="M6.81907 8.5459C6.41741 8.5459 6.0918 8.87151 6.0918 9.27317V26.7277C6.0918 27.1294 6.41741 27.455 6.81907 27.455H24.2736C24.6753 27.455 25.0009 27.1294 25.0009 26.7277V9.27317C25.0009 8.87151 24.6753 8.5459 24.2736 8.5459H6.81907Z" fill="#52ABE2"/>
<path id="Shape_3" d="M7.54492 10.7273C7.54492 10.3256 7.87053 10 8.27219 10H22.8176C23.2193 10 23.5449 10.3256 23.5449 10.7273V25.2727C23.5449 25.6744 23.2193 26 22.8176 26H8.27219C7.87053 26 7.54492 25.6744 7.54492 25.2727V10.7273Z" fill="#154E84"/>
<path id="Shape_4" d="M9 11.4541V24.545H22.0909V11.4541H9Z" fill="white"/>
<path id="Shape_5" fill-rule="evenodd" clip-rule="evenodd" d="M12.6367 15.8181C12.6367 15.4164 12.9623 15.0908 13.364 15.0908H17.7276C18.1293 15.0908 18.4549 15.4164 18.4549 15.8181V20.1817C18.4549 20.5834 18.1293 20.909 17.7276 20.909H13.364C12.9623 20.909 12.6367 20.5834 12.6367 20.1817V15.8181Z" fill="#FFC200"/>
<path id="Shape_6" d="M16.3022 7.62429V3.49876C16.3022 3.0971 15.9766 2.77148 15.5749 2.77148C15.1733 2.77148 14.8477 3.0971 14.8477 3.49876V7.62429C14.8477 8.02595 15.1733 8.35156 15.5749 8.35156C15.9766 8.35156 16.3022 8.02595 16.3022 7.62429Z" fill="#154E84"/>
<path id="Shape_7" d="M22.1206 7.62429V3.49876C22.1206 3.0971 21.795 2.77148 21.3933 2.77148C20.9916 2.77148 20.666 3.0971 20.666 3.49876V7.62429C20.666 8.02595 20.9916 8.35156 21.3933 8.35156C21.795 8.35156 22.1206 8.02595 22.1206 7.62429Z" fill="#154E84"/>
<path id="Shape_8" d="M16.2729 32.3069V28.1814C16.2729 27.7797 15.9473 27.4541 15.5456 27.4541C15.144 27.4541 14.8184 27.7797 14.8184 28.1814V32.3069C14.8184 32.7086 15.144 33.0342 15.5456 33.0342C15.9473 33.0342 16.2729 32.7086 16.2729 32.3069Z" fill="#154E84"/>
<path id="Shape_9" d="M22.0913 32.3069V28.1814C22.0913 27.7797 21.7657 27.4541 21.364 27.4541C20.9623 27.4541 20.6367 27.7797 20.6367 28.1814V32.3069C20.6367 32.7086 20.9623 33.0342 21.364 33.0342C21.7657 33.0342 22.0913 32.7086 22.0913 32.3069Z" fill="#154E84"/>
<path id="Shape_10" d="M10.4545 32.3069V28.1814C10.4545 27.7797 10.1289 27.4541 9.72727 27.4541C9.32561 27.4541 9 27.7797 9 28.1814V32.3069C9 32.7086 9.32561 33.0342 9.72727 33.0342C10.1289 33.0342 10.4545 32.7086 10.4545 32.3069Z" fill="#154E84"/>
<path id="Path" d="M29.1248 17.2793C29.5265 17.2793 29.8521 17.6049 29.8521 18.0066C29.8521 18.4082 29.5265 18.7338 29.1248 18.7338H26.4538C26.0522 18.7338 25.7266 18.4082 25.7266 18.0066C25.7266 17.6049 26.0522 17.2793 26.4538 17.2793H29.1248Z" fill="#154E84"/>
<path id="Path_2" d="M29.1248 11.4609C29.5265 11.4609 29.8521 11.7865 29.8521 12.1882C29.8521 12.5899 29.5265 12.9155 29.1248 12.9155H26.4538C26.0522 12.9155 25.7266 12.5899 25.7266 12.1882C25.7266 11.7865 26.0522 11.4609 26.4538 11.4609H29.1248Z" fill="#154E84"/>
<path id="Path_3" d="M29.1248 23.0977C29.5265 23.0977 29.8521 23.4233 29.8521 23.8249C29.8521 24.2266 29.5265 24.5522 29.1248 24.5522H26.4538C26.0522 24.5522 25.7266 24.2266 25.7266 23.8249C25.7266 23.4233 26.0522 23.0977 26.4538 23.0977H29.1248Z" fill="#154E84"/>
<path id="Path_4" d="M5.12553 17.2793C5.52719 17.2793 5.85281 17.6049 5.85281 18.0066C5.85281 18.4082 5.52719 18.7338 5.12553 18.7338H1.72727C1.32561 18.7338 1 18.4082 1 18.0066C1 17.6049 1.32561 17.2793 1.72727 17.2793H5.12553Z" fill="#154E84"/>
<path id="Path_5" d="M5.12553 11.4609C5.52719 11.4609 5.85281 11.7865 5.85281 12.1882C5.85281 12.5899 5.52719 12.9155 5.12553 12.9155H1.72727C1.32561 12.9155 1 12.5899 1 12.1882C1 11.7865 1.32561 11.4609 1.72727 11.4609H5.12553Z" fill="#154E84"/>
<path id="Path_6" d="M5.12553 23.0977C5.52719 23.0977 5.85281 23.4233 5.85281 23.8249C5.85281 24.2266 5.52719 24.5522 5.12553 24.5522H1.72727C1.32561 24.5522 1 24.2266 1 23.8249C1 23.4233 1.32561 23.0977 1.72727 23.0977H5.12553Z" fill="#154E84"/>
<path id="Shape_11" d="M10.4838 7.62429V3.49876C10.4838 3.0971 10.1582 2.77148 9.75657 2.77148C9.35491 2.77148 9.0293 3.0971 9.0293 3.49876V7.62429C9.0293 8.02595 9.35491 8.35156 9.75657 8.35156C10.1582 8.35156 10.4838 8.02595 10.4838 7.62429Z" fill="#154E84"/>
</g>
</svg>
