<svg width="56" height="56" viewBox="0 0 56 56" fill="none" xmlns="http://www.w3.org/2000/svg">
<g id="iconspace_Call center_1">
<circle id="Shape" cx="28" cy="28" r="28" fill="#E6F0FC"/>
<path id="Shape_2" fill-rule="evenodd" clip-rule="evenodd" d="M17.5 23.625V34.125H38.5V23.625L17.5 23.625Z" fill="#52ABE2"/>
<path id="Shape_3" fill-rule="evenodd" clip-rule="evenodd" d="M16.625 34.125V23.625C16.625 23.1418 17.0168 22.75 17.5 22.75H38.5C38.9832 22.75 39.375 23.1418 39.375 23.625V34.125C39.375 34.6082 38.9832 35 38.5 35H17.5C17.0168 35 16.625 34.6082 16.625 34.125ZM37.625 24.5H18.375V33.25H37.625V24.5Z" fill="#154E84"/>
<path id="Shape_4" fill-rule="evenodd" clip-rule="evenodd" d="M24.2999 29.8757C20.9032 28.4342 18.5208 25.0682 18.5208 21.1458V17.3542C18.5208 12.119 22.7648 7.875 28 7.875C33.2352 7.875 37.4792 12.119 37.4792 17.3542V21.1458C37.4792 25.0682 35.0968 28.4342 31.7001 29.8757L33.25 34.125L39.8147 35.4487C41.1481 35.7088 42.2105 36.7171 42.54 38.035L43.75 42.875H12.25L13.4584 38.0413C13.7887 36.7201 14.8554 35.7104 16.1928 35.4532L22.75 34.125L24.2999 29.8757Z" fill="white"/>
<path id="Shape_5" fill-rule="evenodd" clip-rule="evenodd" d="M17.6463 17.3542V21.1458C17.6463 25.0558 19.8338 28.5629 23.205 30.3251L22.0963 33.3647L16.0195 34.5956C14.3562 34.9155 13.0229 36.1776 12.61 37.8291L11.4016 42.6628C11.2635 43.215 11.6812 43.75 12.2504 43.75H43.7504C44.3197 43.75 44.7374 43.215 44.5993 42.6628L43.3893 37.8228C42.9774 36.1753 41.6494 34.915 39.9826 34.5899L33.9043 33.3642L32.7959 30.3251C36.167 28.5629 38.3546 25.0558 38.3546 21.1458V17.3542C38.3546 11.6357 33.7189 7 28.0004 7C22.282 7 17.6463 11.6357 17.6463 17.3542ZM39.6422 36.3064C40.6476 36.5026 41.4444 37.2588 41.6916 38.2473L42.6298 42H13.3711L14.3077 38.2535C14.5555 37.2626 15.3555 36.5054 16.3585 36.3124L22.9241 34.9826C23.2226 34.9221 23.4681 34.7109 23.5725 34.4248L25.1223 30.1755C25.2819 29.738 25.0708 29.2521 24.6421 29.0702C21.488 27.7316 19.3963 24.6315 19.3963 21.1458V17.3542C19.3963 12.6022 23.2485 8.75 28.0004 8.75C32.7524 8.75 36.6046 12.6022 36.6046 17.3542V21.1458C36.6046 24.6315 34.5129 27.7316 31.3587 29.0702C30.93 29.2521 30.719 29.738 30.8785 30.1755L32.4284 34.4248C32.5328 34.7111 32.7787 34.9225 33.0775 34.9827L39.6422 36.3064Z" fill="#154E84"/>
<circle id="Shape_6" cx="29.75" cy="30.625" r="1.75" fill="#FFC200"/>
<path id="Shape_7" fill-rule="evenodd" clip-rule="evenodd" d="M32.375 30.625C32.375 32.0747 31.1997 33.25 29.75 33.25C28.3003 33.25 27.125 32.0747 27.125 30.625C27.125 29.1753 28.3003 28 29.75 28C31.1997 28 32.375 29.1753 32.375 30.625ZM28.875 30.625C28.875 31.1082 29.2668 31.5 29.75 31.5C30.2332 31.5 30.625 31.1082 30.625 30.625C30.625 30.1418 30.2332 29.75 29.75 29.75C29.2668 29.75 28.875 30.1418 28.875 30.625Z" fill="#154E84"/>
<path id="Shape_8" d="M21.875 34.125C21.875 37.5077 24.6173 40.25 28 40.25C31.3827 40.25 34.125 37.5077 34.125 34.125C34.125 33.6418 33.7332 33.25 33.25 33.25C32.7668 33.25 32.375 33.6418 32.375 34.125C32.375 36.5412 30.4162 38.5 28 38.5C25.5838 38.5 23.625 36.5412 23.625 34.125C23.625 33.6418 23.2332 33.25 22.75 33.25C22.2668 33.25 21.875 33.6418 21.875 34.125Z" fill="#154E84"/>
<path id="Shape_9" fill-rule="evenodd" clip-rule="evenodd" d="M38.5 16.625H40.25C41.2165 16.625 42 17.4085 42 18.375V21.875C42 22.8415 41.2165 23.625 40.25 23.625H38.5V16.625Z" fill="#FFC200"/>
<path id="Shape_10" fill-rule="evenodd" clip-rule="evenodd" d="M17.5 16.625V23.625H15.75C14.7835 23.625 14 22.8415 14 21.875V18.375C14 17.4085 14.7835 16.625 15.75 16.625H17.5Z" fill="#FFC200"/>
<path id="Shape_11" fill-rule="evenodd" clip-rule="evenodd" d="M38.5 15.75C38.0168 15.75 37.625 16.1418 37.625 16.625V23.625C37.625 24.1082 38.0168 24.5 38.5 24.5H40.25C41.6997 24.5 42.875 23.3247 42.875 21.875V18.375C42.875 16.9253 41.6997 15.75 40.25 15.75H38.5ZM39.375 22.75V17.5H40.25C40.7332 17.5 41.125 17.8918 41.125 18.375V21.875C41.125 22.3582 40.7332 22.75 40.25 22.75H39.375Z" fill="#154E84"/>
<path id="Shape_12" fill-rule="evenodd" clip-rule="evenodd" d="M18.375 23.625V16.625C18.375 16.1418 17.9832 15.75 17.5 15.75H15.75C14.3003 15.75 13.125 16.9253 13.125 18.375V21.875C13.125 23.3247 14.3003 24.5 15.75 24.5H17.5C17.9832 24.5 18.375 24.1082 18.375 23.625ZM15.75 17.5H16.625V22.75H15.75C15.2668 22.75 14.875 22.3582 14.875 21.875V18.375C14.875 17.8918 15.2668 17.5 15.75 17.5Z" fill="#154E84"/>
<path id="Shape_13" fill-rule="evenodd" clip-rule="evenodd" d="M37.4798 17.3542C35.2712 17.2173 32.4039 15.2519 31.1062 12.0366C27.2102 15.6581 23.098 17.3895 18.5215 17.3542L18.5456 16.8284C18.7753 11.8186 22.9039 7.875 27.9189 7.875C32.9577 7.875 37.1288 11.7912 37.4461 16.82L37.4798 17.3542Z" fill="#52ABE2"/>
<path id="Shape_14" fill-rule="evenodd" clip-rule="evenodd" d="M17.6474 17.3141C17.6247 17.8099 18.0184 18.2253 18.5147 18.2291C22.9813 18.2636 27.0248 16.6955 30.8186 13.464C32.3209 16.1844 34.98 18.0759 37.4257 18.2275C37.9512 18.2601 38.3863 17.8245 38.3531 17.2991L38.3194 16.7649C37.973 11.2752 33.4196 7 27.919 7C22.4362 7 17.9227 11.3113 17.6715 16.7883L17.6474 17.3141ZM19.448 16.4609C19.8541 12.1138 23.5085 8.75 27.919 8.75C32.2959 8.75 35.9521 12.0032 36.5153 16.2824C34.716 15.7076 32.8317 13.9739 31.9176 11.7091C31.688 11.1403 30.9597 10.9781 30.5105 11.3957C27.0417 14.6201 23.4301 16.2698 19.448 16.4609Z" fill="#154E84"/>
</g>
</svg>
