<svg width="64" height="64" viewBox="0 0 64 64" fill="none" xmlns="http://www.w3.org/2000/svg">
<g id="iconspace_Camera ">
<path id="Shape" d="M20.4197 20L23.5559 14.5116C24.09 13.5769 25.0841 13 26.1606 13H37.8394C38.9159 13 39.91 13.5769 40.4441 14.5116L43.5803 20H50C51.6569 20 53 21.3431 53 23V48C53 49.6569 51.6569 51 50 51H14C12.3431 51 11 49.6569 11 48V23C11 21.3431 12.3431 20 14 20H20.4197Z" fill="#154E84"/>
<path id="Shape_2" d="M21 22H14C13.4477 22 13 22.4477 13 23V48C13 48.5523 13.4477 49 14 49H50C50.5523 49 51 48.5523 51 48V23C51 22.4477 50.5523 22 50 22H43C42.6411 22 42.3098 21.8077 42.1318 21.4961L38.7076 15.5039C38.5296 15.1923 38.1982 15 37.8394 15H26.1606C25.8018 15 25.4704 15.1923 25.2924 15.5039L21.8682 21.4961C21.6902 21.8077 21.3589 22 21 22Z" fill="white"/>
<path id="Shape_3" fill-rule="evenodd" clip-rule="evenodd" d="M23.9996 22H39.9996L37.2909 17.4855C37.1102 17.1843 36.7847 17 36.4334 17H27.5658C27.2145 17 26.889 17.1843 26.7083 17.4855L23.9996 22Z" fill="#52ABE2"/>
<path id="Shape_4" d="M32 46C37.5228 46 42 41.5228 42 36C42 30.4772 37.5228 26 32 26C26.4772 26 22 30.4772 22 36C22 41.5228 26.4772 46 32 46Z" fill="#154E84"/>
<path id="Shape_5" d="M32 44C27.5817 44 24 40.4183 24 36C24 31.5817 27.5817 28 32 28C36.4183 28 40 31.5817 40 36C40 40.4183 36.4183 44 32 44Z" fill="#52ABE2"/>
<circle id="Shape_6" cx="32" cy="36" r="6" fill="white"/>
<circle id="Shape_7" cx="18" cy="27" r="2" fill="#FFC200"/>
</g>
</svg>
