<svg width="66" height="66" viewBox="0 0 66 66" fill="none" xmlns="http://www.w3.org/2000/svg">
<g id="iconspace_Stethoscope B">
<path id="Shape" d="M47 42V44C47 48.9706 42.9706 53 38 53C33.0294 53 29 48.9706 29 44V38H27V44C27 50.0751 31.9249 55 38 55C44.0751 55 49 50.0751 49 44V42H47Z" fill="#154E84"/>
<path id="Shape_2" d="M48 44C51.3137 44 54 41.3137 54 38C54 34.6863 51.3137 32 48 32C44.6863 32 42 34.6863 42 38C42 41.3137 44.6863 44 48 44Z" fill="#154E84"/>
<path id="Shape_3" d="M48 42C45.7909 42 44 40.2091 44 38C44 35.7909 45.7909 34 48 34C50.2091 34 52 35.7909 52 38C52 40.2091 50.2091 42 48 42Z" fill="white"/>
<circle id="Shape_4" cx="48" cy="38" r="2" fill="#FFC200"/>
<path id="Shape_5" d="M34.8873 18H33.0007C32.4485 18 32.0007 17.5523 32.0007 17V14C32.0007 13.4477 32.4485 13 33.0007 13H37.4448C39.1016 13 40.4448 14.3431 40.4448 16C40.4448 16.2432 40.4152 16.4854 40.3567 16.7215L35.4016 36.7215C35.07 38.06 33.8686 39 32.4896 39H23.5883C22.2129 39 21.0137 38.0647 20.6786 36.7308L15.6555 16.7308C15.2519 15.1238 16.2274 13.494 17.8344 13.0904C18.0734 13.0304 18.3188 13 18.5652 13L23.0007 13C23.553 13 24.0007 13.4477 24.0007 14V17C24.0007 17.5523 23.553 18 23.0007 18H21.1142L24.7967 34H31.2048L34.8873 18Z" fill="#154E84"/>
<path id="Shape_6" d="M22.0003 15H18.5647C18.4826 15 18.4008 15.0101 18.3211 15.0301C17.7855 15.1647 17.4603 15.7079 17.5948 16.2436L22.6179 36.2436C22.7296 36.6882 23.1293 37 23.5878 37H32.4891C32.9488 37 33.3493 36.6867 33.4598 36.2405L38.4149 16.2405C38.4344 16.1618 38.4443 16.0811 38.4443 16C38.4443 15.4477 37.9966 15 37.4443 15H34.0003V16H36.1431C36.786 16 37.2618 16.5978 37.1176 17.2243L32.9748 35.2243C32.8703 35.6783 32.4661 36 32.0003 36H24.0003C23.5344 36 23.1302 35.6783 23.0257 35.2243L18.8829 17.2243C18.7387 16.5978 19.2146 16 19.8574 16H22.0003V15Z" fill="#52ABE2"/>
<path id="Shape_7" d="M25 38C25 37.4477 25.4477 37 26 37H30C30.5523 37 31 37.4477 31 38V41C31 41.5523 30.5523 42 30 42H26C25.4477 42 25 41.5523 25 41V38Z" fill="#154E84"/>
<path id="Shape_8" d="M27 39V40H29V39H27Z" fill="white"/>
</g>
</svg>
